<svg width="346" height="72" viewBox="0 0 346 72" fill="none" xmlns="http://www.w3.org/2000/svg">
<rect x="2.80933" y="2" width="340.892" height="67.708" rx="13" fill="white" stroke="#B16E72" stroke-width="4"/>
<path d="M94.2 45.8568C93.496 45.8568 92.7627 45.7174 92 45.4388C91.252 45.1601 90.5994 44.7934 90.042 44.3388L91.406 42.4468C91.9194 42.8428 92.4034 43.1361 92.858 43.3268C93.3274 43.5174 93.804 43.6128 94.288 43.6128C94.7867 43.6128 95.1607 43.5248 95.41 43.3488C95.6594 43.1581 95.784 42.8941 95.784 42.5568C95.784 42.3221 95.6814 42.1168 95.476 41.9408C95.2854 41.7648 95.0067 41.6034 94.64 41.4568C94.2734 41.2954 93.9067 41.1414 93.54 40.9948C92.6747 40.6574 91.9634 40.2468 91.406 39.7628C90.8634 39.2641 90.592 38.6114 90.592 37.8048C90.592 36.8074 90.966 36.0008 91.714 35.3848C92.462 34.7541 93.452 34.4388 94.684 34.4388C96.0334 34.4388 97.2874 34.8934 98.446 35.8028L97.104 37.6068C96.2387 36.9908 95.4614 36.6828 94.772 36.6828C94.3174 36.6828 93.9727 36.7708 93.738 36.9468C93.518 37.1228 93.408 37.3574 93.408 37.6508C93.408 37.9441 93.5547 38.1861 93.848 38.3768C94.1414 38.5528 94.4787 38.7068 94.86 38.8388C95.2414 38.9708 95.4907 39.0588 95.608 39.1028C96.532 39.4401 97.258 39.8508 97.786 40.3348C98.3287 40.8041 98.6 41.4861 98.6 42.3808C98.6 43.0408 98.424 43.6348 98.072 44.1628C97.7347 44.6761 97.236 45.0868 96.576 45.3948C95.916 45.7028 95.124 45.8568 94.2 45.8568ZM109.742 39.6528C109.742 40.2101 109.698 40.6648 109.61 41.0168H102.878C103.025 41.8821 103.377 42.5201 103.934 42.9308C104.506 43.3414 105.166 43.5468 105.914 43.5468C106.691 43.5468 107.498 43.3048 108.334 42.8208L109.324 44.6468C108.781 45.0281 108.173 45.3288 107.498 45.5488C106.838 45.7541 106.178 45.8568 105.518 45.8568C104.491 45.8568 103.56 45.6294 102.724 45.1748C101.903 44.7201 101.25 44.0601 100.766 43.1948C100.297 42.3294 100.062 41.3174 100.062 40.1588C100.062 39.0148 100.297 38.0101 100.766 37.1448C101.25 36.2794 101.881 35.6121 102.658 35.1428C103.435 34.6734 104.264 34.4388 105.144 34.4388C106.625 34.4388 107.762 34.9228 108.554 35.8908C109.346 36.8441 109.742 38.0981 109.742 39.6528ZM107.168 39.0148C107.168 38.3108 107.007 37.7608 106.684 37.3648C106.361 36.9541 105.87 36.7488 105.21 36.7488C104.667 36.7488 104.183 36.9394 103.758 37.3208C103.347 37.6874 103.069 38.2521 102.922 39.0148H107.168ZM114.471 45.8568C113.503 45.8568 112.718 45.5488 112.117 44.9328C111.53 44.3168 111.237 43.5394 111.237 42.6008C111.237 41.4421 111.728 40.5474 112.711 39.9168C113.694 39.2714 115.27 38.8314 117.441 38.5968C117.397 37.4234 116.796 36.8368 115.637 36.8368C115.182 36.8368 114.72 36.9248 114.251 37.1008C113.782 37.2768 113.268 37.5261 112.711 37.8488L111.633 35.8688C113.173 34.9154 114.698 34.4388 116.209 34.4388C117.602 34.4388 118.658 34.8494 119.377 35.6708C120.096 36.4774 120.455 37.6874 120.455 39.3008V45.5928H117.991L117.771 44.4488H117.705C116.62 45.3874 115.542 45.8568 114.471 45.8568ZM115.461 43.5248C115.828 43.5248 116.158 43.4441 116.451 43.2828C116.759 43.1068 117.089 42.8501 117.441 42.5128V40.4228C116.253 40.5841 115.402 40.8261 114.889 41.1488C114.376 41.4714 114.119 41.8748 114.119 42.3588C114.119 42.7401 114.236 43.0334 114.471 43.2388C114.706 43.4294 115.036 43.5248 115.461 43.5248ZM123.302 34.7028H125.744L125.964 36.6168H126.052C126.433 35.9128 126.895 35.3774 127.438 35.0108C127.995 34.6294 128.56 34.4388 129.132 34.4388C129.645 34.4388 130.071 34.5121 130.408 34.6588L129.902 37.2548C129.858 37.2401 129.726 37.2108 129.506 37.1668C129.286 37.1081 129.037 37.0788 128.758 37.0788C128.289 37.0788 127.834 37.2474 127.394 37.5848C126.954 37.9221 126.587 38.4501 126.294 39.1688V45.5928H123.302V34.7028ZM136.302 45.8568C135.29 45.8568 134.381 45.6294 133.574 45.1748C132.767 44.7201 132.129 44.0674 131.66 43.2168C131.205 42.3514 130.978 41.3321 130.978 40.1588C130.978 38.9854 131.227 37.9661 131.726 37.1008C132.239 36.2354 132.921 35.5754 133.772 35.1208C134.623 34.6661 135.554 34.4388 136.566 34.4388C137.754 34.4388 138.817 34.8348 139.756 35.6268L138.326 37.5628C138.047 37.3281 137.783 37.1594 137.534 37.0568C137.285 36.9394 137.021 36.8808 136.742 36.8808C135.935 36.8808 135.283 37.1814 134.784 37.7828C134.3 38.3694 134.058 39.1614 134.058 40.1588C134.058 41.1414 134.293 41.9334 134.762 42.5348C135.246 43.1214 135.869 43.4148 136.632 43.4148C137.292 43.4148 137.981 43.1361 138.7 42.5788L139.888 44.5368C139.375 44.9768 138.803 45.3068 138.172 45.5268C137.556 45.7468 136.933 45.8568 136.302 45.8568ZM141.886 30.1268H144.878V33.9768L144.746 36.0008C145.259 35.5168 145.787 35.1354 146.33 34.8568C146.873 34.5781 147.481 34.4388 148.156 34.4388C149.3 34.4388 150.143 34.8201 150.686 35.5828C151.243 36.3308 151.522 37.4088 151.522 38.8168V45.5928H148.508V39.1908C148.508 38.3841 148.391 37.8194 148.156 37.4968C147.936 37.1741 147.569 37.0128 147.056 37.0128C146.645 37.0128 146.286 37.1008 145.978 37.2768C145.67 37.4528 145.303 37.7461 144.878 38.1568V45.5928H141.886V30.1268ZM163.569 32.2388C162.718 32.2388 162.293 32.7888 162.293 33.8888V34.7028H164.295V37.0788H162.293V45.5928H159.279V37.0788H157.827V34.8348L159.279 34.7248V33.9548C159.279 32.7228 159.587 31.7328 160.203 30.9848C160.833 30.2368 161.816 29.8628 163.151 29.8628C163.913 29.8628 164.617 29.9948 165.263 30.2588L164.713 32.4808C164.317 32.3194 163.935 32.2388 163.569 32.2388ZM170.461 45.8568C169.522 45.8568 168.649 45.6294 167.843 45.1748C167.051 44.7201 166.413 44.0601 165.929 43.1948C165.445 42.3294 165.203 41.3174 165.203 40.1588C165.203 38.9854 165.445 37.9661 165.929 37.1008C166.413 36.2354 167.051 35.5754 167.843 35.1208C168.649 34.6661 169.522 34.4388 170.461 34.4388C171.385 34.4388 172.25 34.6661 173.057 35.1208C173.863 35.5754 174.509 36.2428 174.993 37.1228C175.477 37.9881 175.719 39.0001 175.719 40.1588C175.719 41.3174 175.477 42.3294 174.993 43.1948C174.509 44.0601 173.863 44.7201 173.057 45.1748C172.25 45.6294 171.385 45.8568 170.461 45.8568ZM170.461 43.4148C171.15 43.4148 171.685 43.1288 172.067 42.5568C172.448 41.9701 172.639 41.1708 172.639 40.1588C172.639 39.1468 172.448 38.3474 172.067 37.7608C171.685 37.1741 171.15 36.8808 170.461 36.8808C169.757 36.8808 169.214 37.1741 168.833 37.7608C168.466 38.3474 168.283 39.1468 168.283 40.1588C168.283 41.1708 168.466 41.9701 168.833 42.5568C169.214 43.1288 169.757 43.4148 170.461 43.4148ZM178.023 34.7028H180.465L180.685 36.6168H180.773C181.154 35.9128 181.616 35.3774 182.159 35.0108C182.716 34.6294 183.281 34.4388 183.853 34.4388C184.366 34.4388 184.791 34.5121 185.129 34.6588L184.623 37.2548C184.579 37.2401 184.447 37.2108 184.227 37.1668C184.007 37.1081 183.757 37.0788 183.479 37.0788C183.009 37.0788 182.555 37.2474 182.115 37.5848C181.675 37.9221 181.308 38.4501 181.015 39.1688V45.5928H178.023V34.7028ZM193.705 45.8568C192.737 45.8568 191.953 45.5488 191.351 44.9328C190.765 44.3168 190.471 43.5394 190.471 42.6008C190.471 41.4421 190.963 40.5474 191.945 39.9168C192.928 39.2714 194.505 38.8314 196.675 38.5968C196.631 37.4234 196.03 36.8368 194.871 36.8368C194.417 36.8368 193.955 36.9248 193.485 37.1008C193.016 37.2768 192.503 37.5261 191.945 37.8488L190.867 35.8688C192.407 34.9154 193.933 34.4388 195.443 34.4388C196.837 34.4388 197.893 34.8494 198.611 35.6708C199.33 36.4774 199.689 37.6874 199.689 39.3008V45.5928H197.225L197.005 44.4488H196.939C195.854 45.3874 194.776 45.8568 193.705 45.8568ZM194.695 43.5248C195.062 43.5248 195.392 43.4441 195.685 43.2828C195.993 43.1068 196.323 42.8501 196.675 42.5128V40.4228C195.487 40.5841 194.637 40.8261 194.123 41.1488C193.61 41.4714 193.353 41.8748 193.353 42.3588C193.353 42.7401 193.471 43.0334 193.705 43.2388C193.94 43.4294 194.27 43.5248 194.695 43.5248ZM202.536 34.7028H204.978L205.198 36.1108H205.286C205.814 35.5974 206.357 35.1941 206.914 34.9008C207.486 34.5928 208.117 34.4388 208.806 34.4388C209.95 34.4388 210.794 34.8201 211.336 35.5828C211.894 36.3308 212.172 37.4088 212.172 38.8168V45.5928H209.158V39.1908C209.158 38.3841 209.041 37.8194 208.806 37.4968C208.586 37.1741 208.22 37.0128 207.706 37.0128C207.296 37.0128 206.936 37.1008 206.628 37.2768C206.32 37.4528 205.954 37.7461 205.528 38.1568V45.5928H202.536V34.7028ZM219.445 34.7028H222.437V45.5928H219.445V34.7028ZM220.941 33.0088C220.442 33.0088 220.031 32.8621 219.709 32.5688C219.401 32.2608 219.247 31.8721 219.247 31.4028C219.247 30.9334 219.401 30.5521 219.709 30.2588C220.031 29.9508 220.442 29.7968 220.941 29.7968C221.439 29.7968 221.843 29.9508 222.151 30.2588C222.473 30.5521 222.635 30.9334 222.635 31.4028C222.635 31.8721 222.473 32.2608 222.151 32.5688C221.843 32.8621 221.439 33.0088 220.941 33.0088ZM229.509 45.8568C228.247 45.8568 227.323 45.4974 226.737 44.7788C226.15 44.0454 225.857 43.0261 225.857 41.7208V37.0788H224.339V34.8348L226.011 34.7028L226.363 31.7988H228.849V34.7028H231.511V37.0788H228.849V41.6988C228.849 42.8868 229.333 43.4808 230.301 43.4808C230.609 43.4808 230.968 43.4074 231.379 43.2608L231.863 45.4608C231.071 45.7248 230.286 45.8568 229.509 45.8568ZM242.344 39.6528C242.344 40.2101 242.3 40.6648 242.212 41.0168H235.48C235.626 41.8821 235.978 42.5201 236.536 42.9308C237.108 43.3414 237.768 43.5468 238.516 43.5468C239.293 43.5468 240.1 43.3048 240.936 42.8208L241.926 44.6468C241.383 45.0281 240.774 45.3288 240.1 45.5488C239.44 45.7541 238.78 45.8568 238.12 45.8568C237.093 45.8568 236.162 45.6294 235.326 45.1748C234.504 44.7201 233.852 44.0601 233.368 43.1948C232.898 42.3294 232.664 41.3174 232.664 40.1588C232.664 39.0148 232.898 38.0101 233.368 37.1448C233.852 36.2794 234.482 35.6121 235.26 35.1428C236.037 34.6734 236.866 34.4388 237.746 34.4388C239.227 34.4388 240.364 34.9228 241.156 35.8908C241.948 36.8441 242.344 38.0981 242.344 39.6528ZM239.77 39.0148C239.77 38.3108 239.608 37.7608 239.286 37.3648C238.963 36.9541 238.472 36.7488 237.812 36.7488C237.269 36.7488 236.785 36.9394 236.36 37.3208C235.949 37.6874 235.67 38.2521 235.524 39.0148H239.77ZM244.624 34.7028H247.066L247.286 36.1328H247.374C247.902 35.5901 248.423 35.1721 248.936 34.8788C249.45 34.5854 250.029 34.4388 250.674 34.4388C251.437 34.4388 252.06 34.6001 252.544 34.9228C253.028 35.2308 253.41 35.6928 253.688 36.3088C254.246 35.7221 254.796 35.2674 255.338 34.9448C255.881 34.6074 256.475 34.4388 257.12 34.4388C258.264 34.4388 259.115 34.8201 259.672 35.5828C260.23 36.3454 260.508 37.4234 260.508 38.8168V45.5928H257.516V39.1908C257.516 38.3988 257.399 37.8414 257.164 37.5188C256.944 37.1814 256.578 37.0128 256.064 37.0128C255.478 37.0128 254.81 37.3941 254.062 38.1568V45.5928H251.07V39.1908C251.07 38.3988 250.953 37.8414 250.718 37.5188C250.498 37.1814 250.132 37.0128 249.618 37.0128C249.032 37.0128 248.364 37.3941 247.616 38.1568V45.5928H244.624V34.7028ZM265.096 45.8568C264.568 45.8568 264.128 45.6734 263.776 45.3068C263.424 44.9401 263.248 44.4781 263.248 43.9208C263.248 43.3634 263.424 42.9014 263.776 42.5348C264.128 42.1681 264.568 41.9848 265.096 41.9848C265.624 41.9848 266.064 42.1681 266.416 42.5348C266.768 42.9014 266.944 43.3634 266.944 43.9208C266.944 44.4781 266.768 44.9401 266.416 45.3068C266.064 45.6734 265.624 45.8568 265.096 45.8568ZM271.52 45.8568C270.992 45.8568 270.552 45.6734 270.2 45.3068C269.848 44.9401 269.672 44.4781 269.672 43.9208C269.672 43.3634 269.848 42.9014 270.2 42.5348C270.552 42.1681 270.992 41.9848 271.52 41.9848C272.048 41.9848 272.488 42.1681 272.84 42.5348C273.192 42.9014 273.368 43.3634 273.368 43.9208C273.368 44.4781 273.192 44.9401 272.84 45.3068C272.488 45.6734 272.048 45.8568 271.52 45.8568ZM277.944 45.8568C277.416 45.8568 276.976 45.6734 276.624 45.3068C276.272 44.9401 276.096 44.4781 276.096 43.9208C276.096 43.3634 276.272 42.9014 276.624 42.5348C276.976 42.1681 277.416 41.9848 277.944 41.9848C278.472 41.9848 278.912 42.1681 279.264 42.5348C279.616 42.9014 279.792 43.3634 279.792 43.9208C279.792 44.4781 279.616 44.9401 279.264 45.3068C278.912 45.6734 278.472 45.8568 277.944 45.8568Z" fill="#E08E93" fill-opacity="0.94"/>
<path d="M18.685 44.3588L22.6758 40.3925C23.5342 39.6007 24.617 39.076 25.7851 38.886C26.9532 38.6959 28.1531 38.8492 29.2308 39.3261L30.9659 37.6423C28.9212 34.9911 27.9874 31.6866 28.3525 28.3942C28.7176 25.1017 30.3544 22.0657 32.9335 19.8972C35.5126 17.7288 38.8424 16.589 42.2527 16.7073C45.6629 16.8256 48.9004 18.1932 51.3134 20.5348C53.7263 22.8764 55.1356 26.0181 55.2575 29.3274C55.3794 32.6368 54.2049 35.8681 51.9703 38.3709C49.7358 40.8737 46.6072 42.4621 43.2144 42.8164C39.8215 43.1706 36.4163 42.2645 33.6843 40.2803L31.9684 41.9454C32.5177 42.9924 32.7146 44.1803 32.5312 45.3416C32.3479 46.503 31.7937 47.5792 30.9466 48.4187L26.8594 52.385C25.7749 53.436 24.3049 54.0264 22.7722 54.0264C21.2395 54.0264 19.7694 53.436 18.685 52.385C18.1341 51.8622 17.6964 51.238 17.3975 50.5488C17.0987 49.8597 16.9448 49.1196 16.9448 48.3719C16.9448 47.6242 17.0987 46.8841 17.3975 46.1949C17.6964 45.5058 18.1341 44.8815 18.685 44.3588ZM35.0338 36.4262C36.3829 37.7321 38.1006 38.6207 39.9698 38.9797C41.8391 39.3387 43.7761 39.1521 45.5361 38.4434C47.296 37.7347 48.8001 36.5357 49.8583 34.9979C50.9164 33.46 51.4811 31.6524 51.4811 29.8033C51.4811 27.9541 50.9164 26.1465 49.8583 24.6087C48.8001 23.0708 47.296 21.8718 45.5361 21.1631C43.7761 20.4544 41.8391 20.2678 39.9698 20.6268C38.1006 20.9858 36.3829 21.8744 35.0338 23.1803C34.1361 24.0492 33.4239 25.0815 32.9379 26.218C32.452 27.3545 32.2018 28.5728 32.2018 29.8033C32.2018 31.0337 32.452 32.252 32.9379 33.3885C33.4239 34.525 34.1361 35.5573 35.0338 36.4262ZM21.4033 49.6535C21.5826 49.8288 21.7958 49.968 22.0307 50.063C22.2657 50.158 22.5177 50.2069 22.7722 50.2069C23.0267 50.2069 23.2787 50.158 23.5136 50.063C23.7486 49.968 23.9618 49.8288 24.141 49.6535L28.2282 45.6872C28.4089 45.5132 28.5524 45.3063 28.6502 45.0783C28.7481 44.8503 28.7985 44.6058 28.7985 44.3588C28.7985 44.1118 28.7481 43.8673 28.6502 43.6393C28.5524 43.4113 28.4089 43.2044 28.2282 43.0305C28.049 42.8551 27.8358 42.7159 27.6008 42.621C27.3659 42.526 27.1139 42.4771 26.8594 42.4771C26.6049 42.4771 26.3529 42.526 26.118 42.621C25.883 42.7159 25.6698 42.8551 25.4906 43.0305L21.4033 46.9968C21.2226 47.1707 21.0792 47.3776 20.9813 47.6056C20.8835 47.8336 20.8331 48.0781 20.8331 48.3251C20.8331 48.5721 20.8835 48.8166 20.9813 49.0446C21.0792 49.2726 21.2226 49.4795 21.4033 49.6535Z" fill="#B16E72"/>
</svg>
